<svg xmlns="http://www.w3.org/2000/svg" xmlns:xlink="http://www.w3.org/1999/xlink" id="Calque_1" x="0px" y="0px" viewBox="0 0 160 160" xml:space="preserve"><g>			<rect x="63.5" y="110.4" transform="matrix(0.9652 -0.2615 0.2615 0.9652 -27.5548 30.9843)" fill="#00A093" width="78.2" height="17.2"></rect>	<g>		<path fill="#1D1D1B" d="M133.2,82.5c0.1-1.4-0.7-2.7-2.1-3.1c-0.2,0-0.3-0.1-0.5-0.1c-0.8-0.1-1.5,0.2-2.1,0.6   c-0.6,0.5-1,1.2-1.1,2c-0.6,6.1-4.5,8.5-6,8.9c-0.1,0-0.2,0-0.3,0c-1.1-0.3-2.8-2.6-3.8-6.2c8.3-4.8,10.6-11,9.3-15.1   c-0.6-1.9-2.1-3.3-4-3.9c-1.4-0.4-2.9-0.4-4.6,0.1c-6.4,1.8-7.9,9.2-7.2,15.6c-0.4,0.2-0.8,0.3-1.1,0.4c-1.2,0.5-2.4,1-3.5,1.5   c-1.6-1.7-3-3.5-4.1-5.1c2.7-4.8,1.5-6.5,1-7.3c-0.3-0.5-1-1.1-2-1.4c-0.8-0.2-1.8-0.2-2.9,0.1l-0.1,0c-2.5,0.7-3.3,2.5-3.6,3.5   c-0.3,1.3-0.1,3,0.8,4.9c-1.1,1.4-2.2,2.6-3.2,3.6c-0.7-1.4-1.5-2.6-2.4-3.5c-1-1-2.1-1.6-3.3-2c-1.3-0.4-2.7-0.4-4,0   c-1.4,0.4-2.7,1.1-3.6,2.1l0,0c-0.2,0.1-3.9,3.5-3.4,14.4c0,0.1,0,0.2-0.1,0.3c-0.2,2.4-1.3,9.8-4.2,12.2c-0.5,0.4-1,0.6-1.5,0.6   c-0.5-1.4,0-6.2,0.2-8.5c0.6-6,1.2-11.7-2-14.3c-0.6-0.5-1.2-0.8-1.9-1c-1.2-0.3-2.5-0.3-4,0.1c-2.8,0.8-5.1,2.7-7,5.5   c-0.2-1.1-1-2.1-2.1-2.4c-0.2-0.1-0.5-0.1-0.8-0.1c-1.5,0-2.8,1.2-3,2.7c-1.4,16.7-10.3,27.1-10.4,27.2c-1.1,1.2-0.9,3,0.3,4.1   c0.3,0.3,0.7,0.5,1.1,0.6c1.1,0.3,2.3,0,3-0.9c0.4-0.4,3.8-4.5,7-11.5l1.9,39.1c0.1,1.2,0.9,2.3,2.1,2.7c0.3,0.1,0.6,0.1,1,0.1   c0.2,0,0.5-0.1,0.7-0.1c1.3-0.4,2.2-1.6,2.1-2.9l-2-40.9c0.2-4,2.2-15.9,7.7-17.5c0.3-0.1,0.5-0.1,0.6-0.1   c0.7,1.3,0.1,6.6-0.1,9.2c-0.6,5.5-1.1,10.3,1.2,13.1c0.7,0.8,1.5,1.4,2.5,1.7c0.3,0.1,0.7,0.2,1,0.2c2.3,0.2,4.4-0.5,6.2-2   c1.6-1.3,2.9-3.3,3.9-5.9c0.6,0.7,1.2,1.3,1.8,1.8c0.7,0.5,1.4,0.9,2.2,1.1c1.2,0.3,2.5,0.4,3.8,0.1c3.2-0.8,5.5-3.5,6.7-7.7   c0.9-3.3,1.1-7.4,0.5-11.2c1.6-1.2,3.2-2.6,4.7-4.4c0.8,1,1.7,2.1,2.6,3.2c-4.6,3.6-6.6,8.1-5.4,11.9c0.6,1.8,2,3.2,3.8,3.7   c1.1,0.3,2.2,0.3,3.4,0c3.8-1.1,6.2-3.1,7.3-6c1.1-2.9,0.4-5.9-0.4-7.9c0.6-0.3,1.3-0.6,2-0.8c0.1,0,0.2-0.1,0.3-0.1   c1.6,5,4.4,8.4,7.5,9.3c1.1,0.3,2.3,0.3,3.5,0c0.1,0,0.1,0,0.2,0C126.4,95.4,132.4,91.4,133.2,82.5z M119.5,71.4   c0.4-0.1,1-0.2,1.3-0.1c0.1,0,0.1,0.1,0.2,0.1c0.4,1.1-0.8,4.1-4.6,6.8C116.4,74.5,117.6,71.9,119.5,71.4z M101.1,96.3   c0-0.2,0-0.4,0-0.8c0.2-0.8,0.8-2.5,3.3-4.4c0.2,0.8,0.4,1.9,0.1,2.8C104.2,94.9,103,95.7,101.1,96.3z M98.6,75   c-0.1-0.2-0.3-0.5-0.3-0.7l0-0.1c0-0.1,0-0.3,0.1-0.4c0.1-0.1,0.4-0.1,0.4-0.1c0,0,0.1,0.1,0.1,0.1C99,74.2,98.8,74.6,98.6,75z    M84,84.7c-1.1-0.4-1.6-1.2-1.6-1.8c0-0.6,0.8-1,1.4-1.1c0.3-0.1,0.5-0.1,0.8,0c0.2,0.1,0.5,0.2,0.8,0.5c0.5,0.5,1.1,1.4,1.5,2.4   C85.8,85,84.8,85,84,84.7z M85.1,100.9c-0.3,0.1-0.6,0.1-0.8,0c-0.2,0-0.3-0.1-0.4-0.2c-1.8-1.3-2.7-5.8-2.9-7.8l0-0.1   c-0.1-1.3-0.2-2.5-0.2-3.3c0.4,0.2,0.9,0.5,1.4,0.6c0.2,0.1,0.3,0.1,0.5,0.2c1.2,0.3,3.1,0.6,5.5,0c0.2,2.5,0,5-0.6,6.9   C86.9,99.4,86.1,100.7,85.1,100.9z"></path>		<path fill="#1D1D1B" d="M45,55.1c0.1,0,0.2-0.1,0.3-0.1c0.8,1.2,0.6,6.7,0.5,9.4c-0.2,5.6-0.4,10.3,2.1,12.8   c0.9,1,2.2,1.5,3.6,1.5c3.2-0.1,5.7-2.7,7.5-8.1c0.6,1.5,1.2,2.6,2,3.4c0.7,0.7,1.5,1.2,2.3,1.4c0.5,0.1,1,0.2,1.5,0.2   c3.5-0.1,6.3-2.8,8.3-8.4c0.8,1.5,1.8,2.5,3.1,3.1c0.2,0.1,0.4,0.2,0.7,0.2c4.2,1.2,8.1-3.3,9.4-4.8l0.1-0.1   c0.8,0.8,1.6,1.4,2.5,1.9c0.4,0.2,0.8,0.4,1.3,0.5c2.6,0.8,5.4,0,8.2-2.1c5.9-4.5,8.1-10,8.9-13.9c2.7-1.1,7.4-4.6,9.2-15.5   c0.2-1.5-0.6-2.9-2.1-3.3c-0.1,0-0.2-0.1-0.3-0.1c-0.8-0.1-1.5,0-2.1,0.5c-0.6,0.4-1,1.1-1.2,1.9c-0.8,4.8-2.2,7.5-3.2,8.9   c-0.1-0.7-0.3-1.4-0.5-2.1c-0.9-2.7-2.4-3.7-3.5-4c-0.3-0.1-0.7-0.1-1-0.2c-1.5,0-3.5,0.8-4.8,4.5c-1,2.9-0.5,5.8,1.4,7.7   c0.6,0.6,1.4,1.2,2.2,1.5c-0.8,2.6-2.5,6.2-6.5,9.2c-1.3,1-2.4,1.4-3.1,1.2c-0.1,0-0.2-0.1-0.3-0.1c-0.5-0.3-1-0.8-1.5-1.5   c4.1-6.6,7.1-15,8.5-23.9c1.3-8.3,1.4-18.8-2.3-23.5c-0.9-1.2-2-2-3.3-2.3c-1.5-0.4-3.1-0.2-4.6,0.5C82.1,14.8,80,29,80.1,40.2   c0,3.8,0.4,13.2,3.1,20.1c-0.4,0.5-0.8,1.1-1.3,1.6c-2,2.3-3.1,2.9-3.5,3c-0.3-0.4-1.5-2.5-1.7-9.5c-0.1-2.9,0-5.7,0.1-7.5   c0.1-1.3,0.2-2.2,0.2-2.4c0.1-1.4-0.8-2.6-2.1-3c-0.2-0.1-0.4-0.1-0.6-0.1c-1.6-0.1-2.9,1-3.1,2.6c0,0-0.1,0.9-0.2,2.4   c-0.2,2.7-0.7,6.8-1.5,10.9c-1.9,9.5-4.1,11.1-4.7,11.4c-0.4-0.6-1.6-2.9-2.2-10.5c-0.3-5-0.2-9.9-0.2-10.4   c0.1-1.3-0.8-2.5-2.1-2.9c-0.2-0.1-0.4-0.1-0.6-0.1c-1.6-0.1-2.9,1.1-3,2.7c0,0.7-0.4,6.6-1.5,12.6c-1.3,7.7-2.9,10.4-3.6,11.4   c-0.4-1.8-0.2-5.5-0.2-7.8c0.2-6.1,0.4-11.8-2.8-14.3c-0.5-0.4-1.1-0.7-1.8-0.9c-1.1-0.3-2.3-0.3-3.6,0.1   c-2.6,0.7-4.7,2.6-6.6,5.7l0-0.4c0-1.3-0.8-2.5-2.1-2.9c-0.2-0.1-0.4-0.1-0.6-0.1c-1.6-0.1-2.9,1.1-3,2.6   c-1.3,15-12.5,24.4-12.6,24.5c-1.2,1-1.4,2.8-0.4,4.1c0.4,0.5,0.9,0.8,1.5,1c0.9,0.3,1.9,0.1,2.6-0.5c0.2-0.2,4.6-3.8,8.6-10.2   l-1.3,44.2c0,1.3,0.8,2.5,2.1,2.9c0.2,0.1,0.5,0.1,0.7,0.1c0.3,0,0.5,0,0.7-0.1c1.3-0.3,2.2-1.4,2.2-2.8l1.1-35.8   c0.3-5.7,1.4-11.9,2.8-16.8C40.7,59.2,42.8,55.8,45,55.1z M90.8,16.9c0.2-0.1,0.3-0.1,0.4-0.1c0,0,0.1,0,0.1,0   c0.1,0,0.2,0.2,0.3,0.3c1.6,2.1,2.3,7.9,1.7,14.8c-0.4,4.5-1.7,13.4-6,21.9c-0.9-3.8-1.3-8.5-1.4-13.6   C85.8,26.7,88.7,17.9,90.8,16.9z M101.8,45.3c0.1-0.4,0.4-0.9,0.7-0.9c0,0,0,0,0.1,0c0.4,0.1,0.5,1.4,0.3,2.5c-0.1,0-0.1,0-0.2,0   C101.8,46.7,101.7,45.9,101.8,45.3z"></path>		<path fill="#1D1D1B" d="M139.8,40.3l-0.2,1.8l0.8-1.7c1.2-2.5,3.4-9.4,1.1-12.8c-0.2-0.3-0.5-0.5-0.8-0.6c-0.5-0.2-1.1,0-1.5,0.5   c-0.7,0.8-0.7,2.1-0.1,3.6C140.3,34.3,139.8,40.1,139.8,40.3z"></path>		<path fill="#1D1D1B" d="M121.3,57.9c0,0.2,0,0.3,0,0.3c-0.1,0.8,0.4,1.6,1.2,1.8c0.1,0,0.2,0,0.3,0.1c0.2,0,0.4,0,0.6,0   c0.7-0.2,1.2-0.8,1.3-1.5l0.1-0.7c0.7-5.6,1.7-13,5-14.5c0.9-0.4,2.4-0.4,2.8,0c1.1,1,0.7,3.4,0.6,5.4c-0.2,3.3-0.4,6.1,1.4,7.5   c1,0.8,2.3,0.9,3.9,0.3c0.9-0.3,1.3-1.3,1-2.2c-0.2-0.5-0.6-0.9-1.2-1.1c-0.3-0.1-0.7-0.1-1,0c-0.3,0.1-0.6,0.2-0.7,0.2   c-0.3-0.6-0.1-3.5,0-4.4c0.2-3.4,0.5-6.8-1.6-8.6c-1.1-0.9-2.6-1.2-4.5-0.8c-1.4,0.4-2.8,1.2-3.9,2.6l0-0.5   c0.1-0.8-0.4-1.6-1.2-1.8c-0.1,0-0.2,0-0.3-0.1c-0.5-0.1-0.9,0.1-1.3,0.4c-0.4,0.3-0.6,0.7-0.6,1.2L121.3,57.9z"></path>	</g>	<path fill="#FFFFFF" d="M69.6,133.9l-3.1-11.2l7.4-2l0.5,1.9l-5.2,1.4l0.7,2.6l4.4-1.2l0.5,1.9l-4.4,1.2l0.8,2.7l5.2-1.4l0.5,1.9  L69.6,133.9z M85.3,129.6l-6.3-5.6l1.9,6.9l-2.2,0.6l-3.1-11.2l1.9-0.5l6.3,5.6l-1.9-6.8l2.2-0.6l3.1,11.2L85.3,129.6z M92.6,127.7  c-1.7,0.5-3.1,0.5-4.5-0.3l1-1.8c0.9,0.5,1.9,0.5,3,0.2c1.3-0.4,1.8-1,1.6-1.9c-0.1-0.4-0.3-0.7-0.6-0.8c-0.3-0.1-0.6-0.2-1.1-0.1  l-1.4,0.2c-1,0.1-1.8,0-2.4-0.3c-0.7-0.4-1.1-1-1.4-2c-0.6-2,0.5-3.8,3-4.5c1.5-0.4,2.8-0.4,4,0.3l-1,1.7c-0.9-0.5-1.8-0.3-2.5-0.1  c-1.2,0.3-1.5,1.1-1.3,1.9c0.1,0.3,0.3,0.6,0.6,0.7c0.3,0.1,0.7,0.2,1.2,0.2l1.4-0.2c1.1-0.1,1.8,0,2.4,0.3  c0.8,0.4,1.2,1.1,1.5,2.1C96.4,125.3,94.9,127,92.6,127.7z M98.4,126l-3.1-11.2l7.4-2l0.5,1.9l-5.2,1.4l0.7,2.6l4.4-1.2l0.5,1.9  l-4.4,1.2l0.8,2.7l5.2-1.4l0.5,1.9L98.4,126z M107.5,123.4l-3.1-11.2l2.2-0.6l3.1,11.2L107.5,123.4z M118.4,119.1  c-0.6,1.1-1.5,1.8-2.8,2.1c-1.2,0.3-2.3,0.2-3.4-0.4c-0.6-0.4-1.1-0.8-1.4-1.4c-0.3-0.6-0.6-1.5-1-2.7c-0.3-1.2-0.5-2.2-0.6-2.8  c-0.1-0.7,0.1-1.3,0.4-1.9c0.6-1,1.5-1.7,2.7-2.1c2.5-0.7,4.4,0.6,5.2,2.4l-2.2,0.6c-0.6-1-1.4-1.4-2.5-1.1c-0.6,0.2-1,0.5-1.2,1  c-0.3,0.6-0.3,1.1,0.3,3.3c0.6,2.2,0.8,2.6,1.4,3c0.4,0.3,1,0.4,1.6,0.2c0.6-0.2,1.1-0.5,1.4-1.1c0.2-0.5,0.3-1,0.1-1.6l-0.1-0.4  l-2.1,0.6l-0.5-1.8l4.2-1.2l0.5,1.6C119,117.1,119,118.1,118.4,119.1z M128.1,117.7l-6.3-5.6l1.9,6.9l-2.2,0.6l-3.1-11.2l1.9-0.5  l6.3,5.6l-1.9-6.8l2.2-0.6l3.1,11.2L128.1,117.7z M129.2,105.4l7.4-2l0.5,1.9l-5.2,1.4l0.7,2.6l4.4-1.2l0.5,1.9l-4.4,1.2l0.8,2.7  l5.2-1.4l0.5,1.9l-7.4,2L129.2,105.4z"></path></g></svg>